<?xml version="1.0" standalone="no"?><!DOCTYPE svg PUBLIC "-//W3C//DTD SVG 1.1//EN" "http://www.w3.org/Graphics/SVG/1.1/DTD/svg11.dtd"><svg class="icon" width="200px" height="186.69px" viewBox="0 0 1097 1024" version="1.1" xmlns="http://www.w3.org/2000/svg"><path d="M548.571429 384q68 0 116.285714 48.285714T713.142857 548.571429t-48.285714 116.285714T548.571429 713.142857t-116.285715-48.285714T384 548.571429t48.285714-116.285715T548.571429 384z m402.285714-237.714286q60.571429 0 103.428571 42.857143t42.857143 103.428572v512q0 60.571429-42.857143 103.428571t-103.428571 42.857143H146.285714q-60.571429 0-103.428571-42.857143T0 804.571429V292.571429q0-60.571429 42.857143-103.428572t103.428571-42.857143h128l29.142857-77.714285q10.857143-28 39.714286-48.285715T402.285714 0h292.571429q30.285714 0 59.142857 20.285714T793.714286 68.571429l29.142857 77.714285h128zM548.571429 804.571429q105.714286 0 180.857142-75.142858T804.571429 548.571429t-75.142858-180.857143T548.571429 292.571429 367.714286 367.714286 292.571429 548.571429t75.142857 180.857142T548.571429 804.571429z" /></svg>